<svg id="Capa_4" data-name="Capa 4" xmlns="http://www.w3.org/2000/svg" viewBox="0 0 2500 2500"><defs><style>.cls-1{fill:#fcdaca;}.cls-2{fill:#1d1d1b;}</style></defs><title>DoggieFinder</title><circle class="cls-1" cx="1250" cy="1250" r="1250"/><path class="cls-2" d="M1135.73,1354.31l488-249a11.59,11.59,0,0,1,3.08-1.06h0c12.27-2.33,18.93,13.82,8.59,20.82l-389.2,263.66a11.51,11.51,0,0,0-3.93,14.48l172.43,361.25a11.5,11.5,0,0,0,15.34,5.42l214.56-102.69a11.55,11.55,0,0,1,8.39-.61l87.31,27.23a11.5,11.5,0,0,1,1.36,21.44l-277,126.81a11.5,11.5,0,0,0-5.59,15.41L1680.29,2321a11.5,11.5,0,0,1-5.42,15.33l-57.09,27.25a11.51,11.51,0,0,1-15.33-5.43l-471.88-988.59A11.5,11.5,0,0,1,1135.73,1354.31Z" transform="translate(-30 -30)"/><path class="cls-2" d="M657.59,421.56,989.25,256.23c274.48-136.82,560.1-40,709.75,260.17,148.94,298.78,67.85,601.57-212.35,741.24l-330.23,164.62ZM1198,1312.3l241.6-120.44C1704.06,1060,1741.51,809.34,1618.22,562,1508.48,341.87,1289.35,195.87,1012,334.12L770.42,454.56Z" transform="translate(-30 -30)"/><path class="cls-2" d="M1425.44,776.45c70.86,19.73-30.93,171.63-103.29,184.87s-217.68-92.92-158.75-137c69.4-51.84,34.7-141.74,107.06-155S1324.32,748.3,1425.44,776.45Z" transform="translate(-30 -30)"/><circle class="cls-2" cx="1037.19" cy="720.93" r="66.59"/><circle class="cls-2" cx="1144.24" cy="565.95" r="66.59"/><circle class="cls-2" cx="1332.48" cy="531.52" r="66.59"/><circle class="cls-2" cx="1459.43" cy="643.7" r="66.59"/></svg>